<?xml version="1.0" encoding="UTF-8"?>
<svg version="1.1" xmlns="http://www.w3.org/2000/svg" width="100" height="100">
<path d="M0 0 C222.42 0 444.84 0 674 0 C674 58.41 674 116.82 674 177 C514.94 177 355.88 177 192 177 C192 244.98 192 312.96 192 383 C351.06 383 510.12 383 674 383 C674 441.41 674 499.82 674 560 C514.94 560 355.88 560 192 560 C192 710.48 192 860.96 192 1016 C128.64 1016 65.28 1016 0 1016 C0 680.72 0 345.44 0 0 Z " fill="#ffffff" transform="translate(0,0)"/>
<path d="M0 0 C1.00880722 0.00555908 1.00880722 0.00555908 2.03799438 0.01123047 C33.0604342 0.25332462 60.70518767 11.58549944 82.75 33.4375 C83.57242187 34.2109375 84.39484375 34.984375 85.2421875 35.78125 C90.55970901 40.86601805 94.797077 46.24152302 98.75 52.4375 C99.32492187 53.30632812 99.89984375 54.17515625 100.4921875 55.0703125 C115.59554679 79.16856133 120.42163628 110.60356351 114.125 138.3125 C113.42517671 141.05426477 112.61867611 143.74493689 111.75 146.4375 C111.43651611 147.45191162 111.43651611 147.45191162 111.11669922 148.48681641 C101.77894995 178.05285848 79.84616866 201.03061419 52.75 215.25 C36.02715262 223.24461208 18.97571505 227.02402587 0.5 226.875 C-0.17253815 226.87129395 -0.84507629 226.86758789 -1.53799438 226.86376953 C-32.5604342 226.62167538 -60.20518767 215.28950056 -82.25 193.4375 C-83.07242188 192.6640625 -83.89484375 191.890625 -84.7421875 191.09375 C-90.05970901 186.00898195 -94.297077 180.63347698 -98.25 174.4375 C-98.82492187 173.56867188 -99.39984375 172.69984375 -99.9921875 171.8046875 C-115.09554679 147.70643867 -119.92163628 116.27143649 -113.625 88.5625 C-112.92517671 85.82073523 -112.11867611 83.13006311 -111.25 80.4375 C-111.04101074 79.76122559 -110.83202148 79.08495117 -110.61669922 78.38818359 C-101.27894995 48.82214152 -79.34616866 25.84438581 -52.25 11.625 C-35.52715262 3.63038792 -18.47571505 -0.14902587 0 0 Z " fill="#ffffff" transform="translate(0,0)"/>
</svg>
